<?xml version="1.0" encoding="UTF-8" standalone="no"?>
<svg
   width="16"
   height="16"
   viewBox="0 0 16 16"
   fill="none"
   version="1.1"
   id="svg10"
   sodipodi:docname="msbuild.svg"
   inkscape:version="1.4.2 (ebf0e94, 2025-05-08)"
   xmlns:inkscape="http://www.inkscape.org/namespaces/inkscape"
   xmlns:sodipodi="http://sodipodi.sourceforge.net/DTD/sodipodi-0.dtd"
   xmlns="http://www.w3.org/2000/svg"
   xmlns:svg="http://www.w3.org/2000/svg">
  <sodipodi:namedview
     id="namedview10"
     pagecolor="#ffffff"
     bordercolor="#000000"
     borderopacity="0.25"
     inkscape:showpageshadow="2"
     inkscape:pageopacity="0.0"
     inkscape:pagecheckerboard="0"
     inkscape:deskcolor="#d1d1d1"
     inkscape:zoom="60.5"
     inkscape:cx="9.3305785"
     inkscape:cy="10.322314"
     inkscape:window-width="1797"
     inkscape:window-height="1551"
     inkscape:window-x="4"
     inkscape:window-y="57"
     inkscape:window-maximized="0"
     inkscape:current-layer="svg10" />
  <path
     d="m 9.1364617,7.4643797 c -0.6532631,0.3758385 -1.4577669,0.3758385 -2.1110277,0 L 5.2668661,6.4523508 4.5633044,6.0492138 3.8597347,5.6425666 1.3268972,4.1842564 C 1.1474877,4.4962534 1.0454678,4.8608313 1.0454678,5.2394331 v 5.6649409 c 0,0.746686 0.3940022,1.437299 1.041282,1.812417 0.00352,0.0034 0.010595,0.007 0.014082,0.01055 l 1.7589137,1.013084 V 9.4903206 c 0,-0.2702785 0.2937388,-0.4389384 0.5283832,-0.3032725 L 4.5633163,9.2884045 5.2668779,9.6915188 7.025447,10.703551 c 0.6532597,0.375838 1.4577636,0.375838 2.1110255,0 L 10.367737,9.9951234 C 10.694168,9.8072025 10.895411,9.4601545 10.895411,9.0843819 V 6.4523928 L 9.1368673,7.4644217 Z"
     fill="url(#paint0_linear_2607_2191)"
     id="path2"
     style="fill:none;stroke:#7287fd;stroke-width:1;stroke-dasharray:none;stroke-opacity:1" />
  <path
     d="M 10.895068,6.4523508 9.1364617,7.4643797 c -0.6532631,0.3758385 -1.4577669,0.3758385 -2.1110277,0 L 5.2668717,6.4523508 4.5633044,6.0492138 3.8597347,5.6425666 1.3268972,4.1842564 c 0.1794107,-0.3084881 0.4362155,-0.5678977 0.75282,-0.75369 0.00695,-0.00704 0.014059,-0.010558 0.021111,-0.014032 L 7.0254389,0.58405245 c 0.6543146,-0.37509494 1.4563805,-0.37509494 2.1106963,0 L 10.891511,1.593651 7.2009542,3.7194144 c -0.2342867,0.1349689 -0.2342867,0.4721995 0,0.6071639 z"
     fill="url(#paint1_linear_2607_2191)"
     id="path3"
     style="fill:none;stroke-width:1;stroke:#7287fd;stroke-opacity:1;stroke-dasharray:none;stroke-linejoin:bevel;stroke-linecap:butt" />
  <path
     d="m 14.835016,4.1842564 -2.532838,1.4583102 -2.28727,-1.3163357 c -0.2342895,-0.134961 -0.2346839,-0.4718419 0,-0.6068108 l 0.876994,-0.5058499 1.410606,-0.8097831 1.758937,1.0131074 c 0.0034,0.00351 0.01059,0.00704 0.01406,0.010558 0.320164,0.185789 0.576944,0.4487042 0.759849,0.7571966 z"
     fill="#7455dd"
     id="path4"
     style="stroke-width:1;fill:none;stroke:#8839ef;stroke-opacity:1;stroke-dasharray:none" />
  <path
     d="m 14.835016,4.1842564 -2.532838,1.4583102 v 4.252932 c 0,0.3751204 -0.200515,0.7214414 -0.525894,0.9096924 L 9.1357998,12.323466 C 8.4828705,12.698912 7.6783645,12.698912 7.025434,12.32319 L 5.7945406,11.614762 c -0.2346364,-0.135007 -0.5276745,0.03364 -0.5276745,0.303535 v 2.631991 l 1.7588959,1.009598 c 0.3271597,0.189298 0.6895399,0.280466 1.0553504,0.280466 0.3658756,0 0.7281897,-0.09116 1.0553493,-0.280466 l 4.9249833,-2.832464 c 0.0071,-0.0035 0.01406,-0.007 0.02111,-0.01407 0.643765,-0.37505 1.034245,-1.062184 1.034245,-1.808864 V 5.2394342 c 0,-0.3786008 -0.10237,-0.7431796 -0.281777,-1.0551767 z"
     fill="url(#paint2_linear_2607_2191)"
     id="path5"
     style="fill:none;stroke-width:1;stroke:#8839ef;stroke-opacity:1;stroke-dasharray:none" />
  <defs
     id="defs10">
    <linearGradient
       id="paint0_linear_2607_2191-1"
       x1="96.005302"
       y1="61.637699"
       x2="96.005302"
       y2="214.24001"
       gradientUnits="userSpaceOnUse"
       spreadMethod="pad">
      <stop
         stop-color="#B9AAEE"
         id="stop5" />
      <stop
         offset="1"
         stop-color="#9780E5"
         id="stop6" />
    </linearGradient>
    <linearGradient
       id="paint1_linear_2607_2191"
       x1="135.892"
       y1="10.6667"
       x2="65.2841"
       y2="99.1983"
       gradientUnits="userSpaceOnUse"
       gradientTransform="matrix(0.06595932,0,0,0.06572907,-0.36200864,-0.34140661)">
      <stop
         stop-color="#DCD5F6"
         id="stop7" />
      <stop
         offset="1"
         stop-color="#CBBFF2"
         id="stop8" />
    </linearGradient>
    <linearGradient
       id="paint2_linear_2607_2191"
       x1="234.672"
       y1="231.995"
       x2="52.9831"
       y2="231.995"
       gradientUnits="userSpaceOnUse"
       gradientTransform="matrix(0.06595932,0,0,0.06572907,-0.36200864,-0.34140661)">
      <stop
         offset="0.388723"
         stop-color="#5B35DE"
         id="stop9" />
      <stop
         offset="1"
         stop-color="#7455DD"
         id="stop10" />
    </linearGradient>
  </defs>
</svg>
